<svg xmlns="http://www.w3.org/2000/svg" width="960" height="600" viewBox="0 0 960 600">
  <defs>
    <linearGradient id="bg" x1="0" y1="0" x2="1" y2="1">
      <stop offset="0" stop-color="#1d4ed8" stop-opacity="0.95"/>
      <stop offset="1" stop-color="#2dd4bf" stop-opacity="0.95"/>
    </linearGradient>
    <linearGradient id="card" x1="0" y1="0" x2="1" y2="1">
      <stop offset="0" stop-color="#ffffff" stop-opacity="0.18"/>
      <stop offset="1" stop-color="#ffffff" stop-opacity="0.06"/>
    </linearGradient>
  </defs>

  <rect x="54" y="40" width="852" height="520" rx="44" fill="url(#bg)"/>

  <rect x="86" y="70" width="788" height="460" rx="34" fill="rgba(0,0,0,0.18)" stroke="rgba(255,255,255,0.25)" stroke-width="2"/>

  <rect x="118" y="102" width="724" height="56" rx="18" fill="url(#card)" stroke="rgba(255,255,255,0.18)" stroke-width="2"/>
  <circle cx="160" cy="130" r="10" fill="rgba(255,255,255,0.75)"/>
  <circle cx="190" cy="130" r="10" fill="rgba(255,255,255,0.45)"/>
  <circle cx="220" cy="130" r="10" fill="rgba(255,255,255,0.25)"/>

  <rect x="118" y="175" width="724" height="150" rx="26" fill="rgba(255,255,255,0.06)" stroke="rgba(255,255,255,0.14)" stroke-width="2"/>
  <text x="152" y="244" font-family="ui-sans-serif, system-ui, -apple-system" font-size="30" font-weight="800" fill="rgba(255,255,255,0.92)">Focus</text>
  <text x="152" y="284" font-family="ui-sans-serif, system-ui, -apple-system" font-size="18" font-weight="700" fill="rgba(255,255,255,0.70)">One offline task</text>

  <rect x="118" y="340" width="460" height="78" rx="22" fill="rgba(0,0,0,0.16)" stroke="rgba(255,255,255,0.16)" stroke-width="2"/>
  <rect x="602" y="340" width="240" height="78" rx="22" fill="rgba(255,255,255,0.10)" stroke="rgba(255,255,255,0.16)" stroke-width="2"/>
  <text x="150" y="392" font-family="ui-sans-serif, system-ui, -apple-system" font-size="16" font-weight="800" fill="rgba(255,255,255,0.82)">Face down</text>
  <text x="634" y="392" font-family="ui-sans-serif, system-ui, -apple-system" font-size="16" font-weight="800" fill="rgba(255,255,255,0.88)">Timer</text>

  <rect x="118" y="434" width="724" height="56" rx="20" fill="rgba(255,255,255,0.08)" stroke="rgba(255,255,255,0.14)" stroke-width="2"/>
  <text x="152" y="468" font-family="ui-sans-serif, system-ui, -apple-system" font-size="16" font-weight="800" fill="rgba(255,255,255,0.88)">Add to Journal when done</text>
</svg>

